<mxfile host="app.diagrams.net" modified="2024-04-21T11:47:15.601Z" agent="Mozilla/5.0 (Windows NT 10.0; Win64; x64) AppleWebKit/537.36 (KHTML, like Gecko) Chrome/123.0.0.0 Safari/537.36 Edg/123.0.0.0" etag="RaSlZHkNna5WbXmr280l" version="24.1.0" type="github">
  <diagram name="Page-1" id="lq2E3iUTwcxpcJMJKccM">
    <mxGraphModel dx="1590" dy="679" grid="1" gridSize="10" guides="1" tooltips="1" connect="1" arrows="1" fold="1" page="1" pageScale="1" pageWidth="850" pageHeight="1100" math="0" shadow="0">
      <root>
        <mxCell id="0" />
        <mxCell id="1" parent="0" />
        <mxCell id="_Vlkt0tSZf_k8hfW9mjZ-1" value="&lt;font style=&quot;font-size: 18px;&quot;&gt;&lt;b&gt;API Gateway (GraphQL)&lt;/b&gt;&lt;/font&gt;" style="rounded=1;whiteSpace=wrap;html=1;fillColor=#d5e8d4;strokeColor=#82b366;" vertex="1" parent="1">
          <mxGeometry x="190" y="200" width="580" height="50" as="geometry" />
        </mxCell>
        <mxCell id="_Vlkt0tSZf_k8hfW9mjZ-2" value="&lt;b&gt;&lt;font style=&quot;font-size: 18px;&quot;&gt;Web App UI&amp;nbsp;&lt;/font&gt;&lt;/b&gt;&lt;div&gt;&lt;b&gt;&lt;font style=&quot;&quot; size=&quot;3&quot;&gt;(E5 Third Party =&amp;gt; Collab Design)&lt;/font&gt;&lt;/b&gt;&lt;/div&gt;" style="rounded=1;whiteSpace=wrap;html=1;fillColor=#f8cecc;strokeColor=#b85450;" vertex="1" parent="1">
          <mxGeometry x="369" y="30" width="220" height="100" as="geometry" />
        </mxCell>
        <mxCell id="_Vlkt0tSZf_k8hfW9mjZ-10" value="&lt;b&gt;&lt;font style=&quot;font-size: 18px;&quot;&gt;Event Broker (Apache Kafka Producer/consumer)&lt;/font&gt;&lt;/b&gt;" style="rounded=0;whiteSpace=wrap;html=1;fillColor=#e1d5e7;strokeColor=#9673a6;" vertex="1" parent="1">
          <mxGeometry x="384" y="311" width="190" height="110" as="geometry" />
        </mxCell>
        <mxCell id="_Vlkt0tSZf_k8hfW9mjZ-11" value="&lt;b&gt;&lt;font style=&quot;font-size: 18px;&quot;&gt;Event Mesh Orchestration (Orchestration logic to handle Events)&lt;/font&gt;&lt;/b&gt;" style="rounded=1;whiteSpace=wrap;html=1;fillColor=#e1d5e7;strokeColor=#9673a6;" vertex="1" parent="1">
          <mxGeometry x="180" y="499" width="590" height="60" as="geometry" />
        </mxCell>
        <mxCell id="_Vlkt0tSZf_k8hfW9mjZ-12" value="" style="endArrow=classic;startArrow=classic;html=1;rounded=0;entryX=0.5;entryY=1;entryDx=0;entryDy=0;" edge="1" parent="1" source="_Vlkt0tSZf_k8hfW9mjZ-1" target="_Vlkt0tSZf_k8hfW9mjZ-2">
          <mxGeometry width="50" height="50" relative="1" as="geometry">
            <mxPoint x="530" y="270" as="sourcePoint" />
            <mxPoint x="580" y="220" as="targetPoint" />
          </mxGeometry>
        </mxCell>
        <mxCell id="_Vlkt0tSZf_k8hfW9mjZ-13" value="&lt;b&gt;&lt;font style=&quot;font-size: 14px;&quot;&gt;Triggered Events/ Responses&lt;/font&gt;&lt;/b&gt;" style="text;html=1;align=center;verticalAlign=middle;whiteSpace=wrap;rounded=0;fillColor=#fff2cc;strokeColor=#d6b656;" vertex="1" parent="1">
          <mxGeometry x="490" y="140" width="130" height="40" as="geometry" />
        </mxCell>
        <mxCell id="_Vlkt0tSZf_k8hfW9mjZ-14" value="" style="endArrow=classic;startArrow=classic;html=1;rounded=0;exitX=0.5;exitY=0;exitDx=0;exitDy=0;" edge="1" parent="1">
          <mxGeometry width="50" height="50" relative="1" as="geometry">
            <mxPoint x="480" y="311" as="sourcePoint" />
            <mxPoint x="480" y="251" as="targetPoint" />
          </mxGeometry>
        </mxCell>
        <mxCell id="_Vlkt0tSZf_k8hfW9mjZ-15" value="&lt;b&gt;&lt;font style=&quot;font-size: 14px;&quot;&gt;/End points&lt;/font&gt;&lt;/b&gt;" style="text;html=1;align=center;verticalAlign=middle;whiteSpace=wrap;rounded=0;fillColor=#fff2cc;strokeColor=#d6b656;" vertex="1" parent="1">
          <mxGeometry x="490" y="261" width="130" height="40" as="geometry" />
        </mxCell>
        <mxCell id="_Vlkt0tSZf_k8hfW9mjZ-18" value="" style="endArrow=classic;startArrow=classic;html=1;rounded=0;entryX=0.5;entryY=0.991;entryDx=0;entryDy=0;entryPerimeter=0;" edge="1" parent="1" target="_Vlkt0tSZf_k8hfW9mjZ-10">
          <mxGeometry width="50" height="50" relative="1" as="geometry">
            <mxPoint x="480" y="499" as="sourcePoint" />
            <mxPoint x="479" y="430" as="targetPoint" />
          </mxGeometry>
        </mxCell>
        <mxCell id="_Vlkt0tSZf_k8hfW9mjZ-19" value="&lt;b&gt;&lt;font style=&quot;font-size: 14px;&quot;&gt;Topics with Events/Responses&lt;/font&gt;&lt;/b&gt;" style="text;html=1;align=center;verticalAlign=middle;whiteSpace=wrap;rounded=0;fillColor=#fff2cc;strokeColor=#d6b656;" vertex="1" parent="1">
          <mxGeometry x="490" y="440" width="130" height="40" as="geometry" />
        </mxCell>
        <mxCell id="_Vlkt0tSZf_k8hfW9mjZ-20" value="&lt;font style=&quot;font-size: 14px;&quot;&gt;&lt;b&gt;Stakeholders microservice&lt;/b&gt;&lt;/font&gt;" style="shape=hexagon;perimeter=hexagonPerimeter2;whiteSpace=wrap;html=1;fixedSize=1;fillColor=#fad9d5;strokeColor=#ae4132;" vertex="1" parent="1">
          <mxGeometry x="280" y="686" width="120" height="80" as="geometry" />
        </mxCell>
        <mxCell id="_Vlkt0tSZf_k8hfW9mjZ-21" value="&lt;b&gt;&lt;font style=&quot;font-size: 14px;&quot;&gt;Collab Designs microservice&lt;/font&gt;&lt;/b&gt;" style="shape=hexagon;perimeter=hexagonPerimeter2;whiteSpace=wrap;html=1;fixedSize=1;fillColor=#fad9d5;strokeColor=#ae4132;" vertex="1" parent="1">
          <mxGeometry x="520" y="681" width="120" height="80" as="geometry" />
        </mxCell>
        <mxCell id="_Vlkt0tSZf_k8hfW9mjZ-22" value="&lt;b&gt;&lt;font style=&quot;font-size: 18px;&quot;&gt;Entity - E5 Third Party&lt;/font&gt;&lt;/b&gt;" style="swimlane;fontStyle=0;childLayout=stackLayout;horizontal=1;startSize=30;horizontalStack=0;resizeParent=1;resizeParentMax=0;resizeLast=0;collapsible=1;marginBottom=0;whiteSpace=wrap;html=1;fillColor=#f5f5f5;fontColor=#333333;strokeColor=#666666;" vertex="1" parent="1">
          <mxGeometry x="260" y="637" width="440" height="160" as="geometry" />
        </mxCell>
        <mxCell id="_Vlkt0tSZf_k8hfW9mjZ-23" value="" style="endArrow=classic;startArrow=classic;html=1;rounded=0;entryX=0.5;entryY=1;entryDx=0;entryDy=0;" edge="1" parent="_Vlkt0tSZf_k8hfW9mjZ-22" target="_Vlkt0tSZf_k8hfW9mjZ-11">
          <mxGeometry width="50" height="50" relative="1" as="geometry">
            <mxPoint x="90" y="43" as="sourcePoint" />
            <mxPoint x="70" y="-41" as="targetPoint" />
          </mxGeometry>
        </mxCell>
        <mxCell id="_Vlkt0tSZf_k8hfW9mjZ-24" value="" style="endArrow=classic;startArrow=classic;html=1;rounded=0;entryX=0.5;entryY=1;entryDx=0;entryDy=0;" edge="1" parent="1" target="_Vlkt0tSZf_k8hfW9mjZ-11">
          <mxGeometry width="50" height="50" relative="1" as="geometry">
            <mxPoint x="570" y="680" as="sourcePoint" />
            <mxPoint x="470" y="670" as="targetPoint" />
          </mxGeometry>
        </mxCell>
        <mxCell id="_Vlkt0tSZf_k8hfW9mjZ-25" value="&lt;b&gt;&lt;font style=&quot;font-size: 14px;&quot;&gt;Requests/Responses&lt;/font&gt;&lt;/b&gt;" style="text;html=1;align=center;verticalAlign=middle;whiteSpace=wrap;rounded=0;fillColor=#fff2cc;strokeColor=#d6b656;" vertex="1" parent="1">
          <mxGeometry x="520" y="570" width="150" height="40" as="geometry" />
        </mxCell>
      </root>
    </mxGraphModel>
  </diagram>
</mxfile>
